M48
;DRILL file {KiCad 4.0.7} date 07/16/18 15:38:14
;FORMAT={-:-/ absolute / metric / decimal}
FMAT,2
METRIC,TZ
T1C0.635
T2C0.889
T3C1.016
T4C1.600
T5C1.600
T6C1.800
T7C2.946
T8C3.277
%
G90
G05
M71
T1
X97.155Y-102.87
X97.155Y-115.57
X97.155Y-125.095
X102.87Y-111.76
X102.87Y-117.475
X102.87Y-123.825
X104.14Y-125.095
X105.41Y-105.41
X105.41Y-123.825
X106.68Y-125.095
X107.95Y-113.665
X107.95Y-123.825
X109.22Y-120.015
X109.22Y-125.095
X110.49Y-123.825
X113.03Y-123.825
X115.57Y-123.825
X118.11Y-123.825
X119.38Y-125.095
X120.015Y-83.82
X120.65Y-123.825
X122.555Y-83.82
X123.19Y-123.825
X124.46Y-81.915
X124.46Y-125.095
X125.73Y-123.825
X131.445Y-81.915
X131.445Y-83.82
X133.985Y-81.915
X136.525Y-83.82
X140.97Y-113.665
X143.51Y-120.65
X147.32Y-125.095
X149.86Y-125.095
X150.495Y-66.04
X150.495Y-71.755
X153.035Y-86.36
X153.67Y-123.825
X156.21Y-97.155
X156.845Y-60.96
X157.48Y-92.71
X157.48Y-125.095
X158.75Y-68.58
X158.75Y-99.695
X158.75Y-104.14
X158.75Y-123.825
X160.02Y-125.095
X161.29Y-93.98
X161.29Y-105.41
X161.29Y-123.825
X161.925Y-47.625
X161.925Y-54.991
X163.83Y-78.105
X163.83Y-106.68
X163.83Y-123.825
X165.1Y-95.25
X165.1Y-113.665
X165.1Y-125.095
X166.37Y-91.44
X166.37Y-123.825
X167.64Y-90.17
X168.91Y-92.71
X168.91Y-123.825
X170.18Y-91.44
X171.45Y-92.71
X171.45Y-123.825
X172.72Y-93.98
X172.72Y-108.077
X172.72Y-125.095
X173.99Y-95.25
X173.99Y-123.825
X175.26Y-125.095
X176.53Y-123.825
X177.8Y-95.25
X177.8Y-113.665
X177.8Y-125.095
X179.07Y-93.98
X180.34Y-49.53
X180.34Y-92.71
X180.34Y-125.095
X181.61Y-47.625
X181.61Y-91.44
X184.785Y-121.92
X187.325Y-116.205
X187.325Y-125.095
X187.96Y-52.07
X189.23Y-125.095
X194.945Y-101.6
X197.485Y-101.6
X198.12Y-52.07
T2
X76.835Y-109.855
X76.835Y-117.475
X79.375Y-109.855
X79.375Y-117.475
X81.915Y-109.855
X81.915Y-117.475
X84.455Y-109.855
X84.455Y-117.475
X86.995Y-109.855
X86.995Y-117.475
X89.535Y-109.855
X89.535Y-117.475
X92.075Y-109.855
X92.075Y-117.475
X94.615Y-109.855
X94.615Y-117.475
X105.41Y-109.855
X105.41Y-117.475
X107.95Y-109.855
X107.95Y-117.475
X110.49Y-109.855
X110.49Y-117.475
X113.03Y-109.855
X113.03Y-117.475
X115.57Y-109.855
X115.57Y-117.475
X118.11Y-109.855
X118.11Y-117.475
X120.65Y-109.855
X120.65Y-117.475
X123.19Y-109.855
X123.19Y-117.475
X129.54Y-48.895
X129.54Y-51.435
X129.54Y-53.975
X130.81Y-90.805
X130.81Y-98.425
X130.81Y-109.855
X130.81Y-117.475
X133.35Y-62.865
X133.35Y-70.485
X133.35Y-90.805
X133.35Y-98.425
X133.35Y-109.855
X133.35Y-117.475
X135.89Y-62.865
X135.89Y-70.485
X135.89Y-90.805
X135.89Y-98.425
X135.89Y-109.855
X135.89Y-117.475
X138.43Y-62.865
X138.43Y-70.485
X138.43Y-90.805
X138.43Y-98.425
X138.43Y-109.855
X138.43Y-117.475
X140.97Y-62.865
X140.97Y-70.485
X140.97Y-90.805
X140.97Y-98.425
X140.97Y-109.855
X140.97Y-117.475
X143.51Y-62.865
X143.51Y-70.485
X143.51Y-90.805
X143.51Y-98.425
X143.51Y-109.855
X143.51Y-117.475
X146.05Y-62.865
X146.05Y-70.485
X146.05Y-90.805
X146.05Y-98.425
X146.05Y-109.855
X146.05Y-117.475
X148.59Y-62.865
X148.59Y-70.485
X148.59Y-109.855
X148.59Y-117.475
X149.86Y-33.528
X149.86Y-41.148
X152.4Y-33.528
X152.4Y-41.148
X154.94Y-33.528
X154.94Y-41.148
X156.21Y-74.295
X156.21Y-81.915
X156.21Y-86.995
X156.21Y-102.235
X156.21Y-109.855
X156.21Y-117.475
X157.48Y-33.528
X157.48Y-41.148
X158.75Y-74.295
X158.75Y-81.915
X158.75Y-86.995
X158.75Y-102.235
X158.75Y-109.855
X158.75Y-117.475
X161.29Y-74.295
X161.29Y-81.915
X161.29Y-86.995
X161.29Y-102.235
X161.29Y-109.855
X161.29Y-117.475
X163.83Y-74.295
X163.83Y-81.915
X163.83Y-86.995
X163.83Y-102.235
X163.83Y-109.855
X163.83Y-117.475
X166.37Y-86.995
X166.37Y-102.235
X166.37Y-109.855
X166.37Y-117.475
X168.91Y-86.995
X168.91Y-102.235
X168.91Y-109.855
X168.91Y-117.475
X171.45Y-86.995
X171.45Y-102.235
X171.45Y-109.855
X171.45Y-117.475
X173.99Y-86.995
X173.99Y-102.235
X173.99Y-109.855
X173.99Y-117.475
X176.53Y-86.995
X176.53Y-102.235
X176.53Y-109.855
X176.53Y-117.475
X179.07Y-86.995
X179.07Y-102.235
X179.07Y-109.855
X179.07Y-117.475
X181.61Y-86.995
X181.61Y-102.235
X184.15Y-86.995
X184.15Y-102.235
T3
X73.025Y-111.125
X73.025Y-113.665
X73.025Y-116.205
X100.33Y-111.125
X100.33Y-113.665
X100.33Y-116.205
X105.41Y-94.615
X105.41Y-99.695
X109.22Y-86.995
X109.22Y-99.695
X112.395Y-86.995
X112.395Y-99.695
X115.57Y-36.83
X117.475Y-58.42
X117.475Y-71.12
X117.475Y-74.295
X117.475Y-86.995
X121.285Y-58.42
X121.285Y-60.96
X121.285Y-63.5
X121.285Y-66.04
X121.285Y-68.58
X121.285Y-71.12
X121.285Y-74.295
X121.285Y-86.995
X121.285Y-90.805
X121.285Y-103.505
X124.46Y-58.42
X124.46Y-71.12
X124.46Y-74.295
X124.46Y-86.995
X127.Y-92.075
X127.Y-94.615
X127.Y-97.155
X127.635Y-111.125
X127.635Y-113.665
X127.635Y-116.205
X128.27Y-58.42
X128.27Y-71.12
X128.27Y-74.295
X128.27Y-76.835
X128.27Y-79.375
X128.27Y-81.915
X128.27Y-84.455
X128.27Y-86.995
X128.27Y-104.14
X128.27Y-106.68
X130.81Y-104.14
X130.81Y-106.68
X132.715Y-74.295
X132.715Y-86.995
X133.35Y-104.14
X133.35Y-106.68
X135.255Y-74.295
X135.255Y-86.995
X135.89Y-48.895
X135.89Y-53.975
X140.335Y-45.72
X140.335Y-58.42
X140.97Y-36.83
X140.97Y-104.14
X140.97Y-106.68
X143.51Y-45.72
X143.51Y-58.42
X143.51Y-104.14
X143.51Y-106.68
X145.415Y-34.925
X145.415Y-40.005
X146.05Y-104.14
X146.05Y-106.68
X147.955Y-45.72
X147.955Y-48.26
X147.955Y-50.8
X147.955Y-53.34
X147.955Y-55.88
X147.955Y-58.42
X148.59Y-104.14
X148.59Y-106.68
X152.4Y-45.72
X152.4Y-58.42
X153.035Y-75.565
X153.035Y-78.105
X153.035Y-80.645
X153.035Y-111.125
X153.035Y-113.665
X153.035Y-116.205
X153.67Y-64.135
X153.67Y-66.675
X153.67Y-69.215
X156.845Y-64.135
X156.845Y-66.675
X156.845Y-69.215
X161.925Y-34.925
X161.925Y-37.465
X161.925Y-40.005
X165.735Y-34.925
X165.735Y-37.465
X165.735Y-40.005
X165.735Y-43.18
X165.735Y-55.88
X167.703Y-75.565
X167.703Y-80.645
X171.45Y-30.48
X171.45Y-43.18
X175.26Y-30.48
X175.26Y-43.18
X178.435Y-52.07
X178.435Y-54.61
X178.435Y-57.15
X179.07Y-30.48
X179.07Y-43.18
X182.562Y-52.07
X182.562Y-54.61
X182.562Y-57.15
X182.88Y-111.125
X182.88Y-116.205
X187.96Y-97.155
X187.96Y-99.695
X187.96Y-102.235
X189.865Y-117.475
X189.865Y-122.555
X194.945Y-117.475
X194.945Y-122.555
T4
X200.152Y-75.01
X200.152Y-85.01
T5
X195.152Y-80.01
T6
X195.152Y-75.01
X195.152Y-77.51
X195.152Y-82.51
X195.152Y-85.01
X200.152Y-80.01
T7
X77.47Y-45.72
T8
X199.771Y-66.04
X199.771Y-122.555
T0
M30
