G04 #@! TF.FileFunction,Soldermask,Top*
%FSLAX46Y46*%
G04 Gerber Fmt 4.6, Leading zero omitted, Abs format (unit mm)*
G04 Created by KiCad (PCBNEW 4.0.7) date 07/16/18 15:38:04*
%MOMM*%
%LPD*%
G01*
G04 APERTURE LIST*
%ADD10C,0.100000*%
%ADD11O,2.940000X2.432000*%
%ADD12O,2.432000X2.940000*%
%ADD13C,2.000200*%
%ADD14C,2.000000*%
%ADD15R,1.974800X1.974800*%
%ADD16C,1.974800*%
%ADD17C,2.178000*%
%ADD18R,2.178000X2.178000*%
%ADD19R,2.127200X2.127200*%
%ADD20C,2.101800*%
%ADD21C,3.346400*%
%ADD22R,1.924000X7.258000*%
%ADD23C,3.676600*%
%ADD24C,1.670000*%
%ADD25C,0.254000*%
G04 APERTURE END LIST*
D10*
D11*
X195152000Y-77510000D03*
X195152000Y-82510000D03*
X195152000Y-85010000D03*
X195152000Y-75010000D03*
D12*
X200152000Y-80010000D03*
D13*
X195152000Y-80010000D03*
D14*
X200152000Y-75010000D03*
X200152000Y-85010000D03*
D15*
X156210000Y-102235000D03*
D16*
X158750000Y-102235000D03*
X161290000Y-102235000D03*
X163830000Y-102235000D03*
X166370000Y-102235000D03*
X168910000Y-102235000D03*
X171450000Y-102235000D03*
X173990000Y-102235000D03*
X184150000Y-86995000D03*
X181610000Y-86995000D03*
X179070000Y-86995000D03*
X176530000Y-86995000D03*
X173990000Y-86995000D03*
X171450000Y-86995000D03*
X168910000Y-86995000D03*
X166370000Y-86995000D03*
X176530000Y-102235000D03*
X179070000Y-102235000D03*
X181610000Y-102235000D03*
X184150000Y-102235000D03*
X163830000Y-86995000D03*
X161290000Y-86995000D03*
X158750000Y-86995000D03*
X156210000Y-86995000D03*
D17*
X156845000Y-66675000D03*
X156845000Y-64135000D03*
X156845000Y-69215000D03*
X153670000Y-66675000D03*
X153670000Y-64135000D03*
X153670000Y-69215000D03*
D18*
X109220000Y-99695000D03*
D17*
X109220000Y-86995000D03*
D19*
X128270000Y-106680000D03*
X128270000Y-104140000D03*
X130810000Y-106680000D03*
X130810000Y-104140000D03*
X133350000Y-106680000D03*
X133350000Y-104140000D03*
X140970000Y-106680000D03*
X140970000Y-104140000D03*
X143510000Y-106680000D03*
X143510000Y-104140000D03*
X146050000Y-106680000D03*
X146050000Y-104140000D03*
X148590000Y-106680000D03*
X148590000Y-104140000D03*
D16*
X129540000Y-48895000D03*
X129540000Y-51435000D03*
X129540000Y-53975000D03*
D17*
X121285000Y-90805000D03*
X121285000Y-103505000D03*
X117475000Y-74295000D03*
X117475000Y-86995000D03*
X121285000Y-74295000D03*
X121285000Y-86995000D03*
X135255000Y-74295000D03*
X135255000Y-86995000D03*
X132715000Y-74295000D03*
X132715000Y-86995000D03*
X124460000Y-74295000D03*
X124460000Y-86995000D03*
X128270000Y-58420000D03*
X128270000Y-71120000D03*
X117475000Y-71120000D03*
X117475000Y-58420000D03*
X124460000Y-58420000D03*
X124460000Y-71120000D03*
X140335000Y-45720000D03*
X140335000Y-58420000D03*
X143510000Y-45720000D03*
X143510000Y-58420000D03*
X112395000Y-86995000D03*
X112395000Y-99695000D03*
X152400000Y-45720000D03*
X152400000Y-58420000D03*
X182562500Y-57150000D03*
X182562500Y-54610000D03*
X182562500Y-52070000D03*
X165735000Y-43180000D03*
X165735000Y-55880000D03*
X171450000Y-30480000D03*
X171450000Y-43180000D03*
X175260000Y-43180000D03*
X175260000Y-30480000D03*
X179070000Y-43180000D03*
X179070000Y-30480000D03*
D15*
X76835000Y-117475000D03*
D16*
X79375000Y-117475000D03*
X81915000Y-117475000D03*
X84455000Y-117475000D03*
X86995000Y-117475000D03*
X89535000Y-117475000D03*
X92075000Y-117475000D03*
X94615000Y-117475000D03*
X94615000Y-109855000D03*
X92075000Y-109855000D03*
X89535000Y-109855000D03*
X86995000Y-109855000D03*
X84455000Y-109855000D03*
X81915000Y-109855000D03*
X79375000Y-109855000D03*
X76835000Y-109855000D03*
D15*
X105410000Y-117475000D03*
D16*
X107950000Y-117475000D03*
X110490000Y-117475000D03*
X113030000Y-117475000D03*
X115570000Y-117475000D03*
X118110000Y-117475000D03*
X120650000Y-117475000D03*
X123190000Y-117475000D03*
X123190000Y-109855000D03*
X120650000Y-109855000D03*
X118110000Y-109855000D03*
X115570000Y-109855000D03*
X113030000Y-109855000D03*
X110490000Y-109855000D03*
X107950000Y-109855000D03*
X105410000Y-109855000D03*
D15*
X130810000Y-117475000D03*
D16*
X133350000Y-117475000D03*
X135890000Y-117475000D03*
X138430000Y-117475000D03*
X140970000Y-117475000D03*
X143510000Y-117475000D03*
X146050000Y-117475000D03*
X148590000Y-117475000D03*
X148590000Y-109855000D03*
X146050000Y-109855000D03*
X143510000Y-109855000D03*
X140970000Y-109855000D03*
X138430000Y-109855000D03*
X135890000Y-109855000D03*
X133350000Y-109855000D03*
X130810000Y-109855000D03*
D15*
X156210000Y-117475000D03*
D16*
X158750000Y-117475000D03*
X161290000Y-117475000D03*
X163830000Y-117475000D03*
X166370000Y-117475000D03*
X168910000Y-117475000D03*
X171450000Y-117475000D03*
X173990000Y-117475000D03*
X173990000Y-109855000D03*
X171450000Y-109855000D03*
X168910000Y-109855000D03*
X166370000Y-109855000D03*
X163830000Y-109855000D03*
X161290000Y-109855000D03*
X158750000Y-109855000D03*
X156210000Y-109855000D03*
X176530000Y-117475000D03*
X179070000Y-117475000D03*
X179070000Y-109855000D03*
X176530000Y-109855000D03*
D15*
X130810000Y-98425000D03*
D16*
X133350000Y-98425000D03*
X135890000Y-98425000D03*
X138430000Y-98425000D03*
X140970000Y-98425000D03*
X143510000Y-98425000D03*
X146050000Y-98425000D03*
X146050000Y-90805000D03*
X143510000Y-90805000D03*
X140970000Y-90805000D03*
X138430000Y-90805000D03*
X135890000Y-90805000D03*
X133350000Y-90805000D03*
X130810000Y-90805000D03*
D15*
X156210000Y-81915000D03*
D16*
X158750000Y-81915000D03*
X161290000Y-81915000D03*
X163830000Y-81915000D03*
X163830000Y-74295000D03*
X161290000Y-74295000D03*
X158750000Y-74295000D03*
X156210000Y-74295000D03*
D15*
X133350000Y-70485000D03*
D16*
X135890000Y-70485000D03*
X138430000Y-70485000D03*
X140970000Y-70485000D03*
X143510000Y-70485000D03*
X146050000Y-70485000D03*
X148590000Y-70485000D03*
X148590000Y-62865000D03*
X146050000Y-62865000D03*
X143510000Y-62865000D03*
X140970000Y-62865000D03*
X138430000Y-62865000D03*
X135890000Y-62865000D03*
X133350000Y-62865000D03*
D15*
X149860000Y-41148000D03*
D16*
X152400000Y-41148000D03*
X154940000Y-41148000D03*
X157480000Y-41148000D03*
X157480000Y-33528000D03*
X154940000Y-33528000D03*
X152400000Y-33528000D03*
X149860000Y-33528000D03*
D17*
X140970000Y-36830000D03*
X115570000Y-36830000D03*
D20*
X127635000Y-113665000D03*
X127635000Y-111125000D03*
X127635000Y-116205000D03*
X153035000Y-78105000D03*
X153035000Y-75565000D03*
X153035000Y-80645000D03*
X153035000Y-113665000D03*
X153035000Y-111125000D03*
X153035000Y-116205000D03*
X100330000Y-113665000D03*
X100330000Y-111125000D03*
X100330000Y-116205000D03*
X73025000Y-113665000D03*
X73025000Y-111125000D03*
X73025000Y-116205000D03*
X127000000Y-94615000D03*
X127000000Y-92075000D03*
X127000000Y-97155000D03*
X187960000Y-99695000D03*
X187960000Y-97155000D03*
X187960000Y-102235000D03*
X128270000Y-84455000D03*
X128270000Y-81915000D03*
X128270000Y-86995000D03*
X128270000Y-76835000D03*
X128270000Y-74295000D03*
X128270000Y-79375000D03*
X121285000Y-68580000D03*
X121285000Y-66040000D03*
X121285000Y-71120000D03*
X121285000Y-60960000D03*
X121285000Y-58420000D03*
X121285000Y-63500000D03*
X147955000Y-55880000D03*
X147955000Y-53340000D03*
X147955000Y-58420000D03*
X147955000Y-48260000D03*
X147955000Y-45720000D03*
X147955000Y-50800000D03*
X161925000Y-37465000D03*
X161925000Y-34925000D03*
X161925000Y-40005000D03*
X165735000Y-37465000D03*
X165735000Y-34925000D03*
X165735000Y-40005000D03*
X178435000Y-54610000D03*
X178435000Y-52070000D03*
X178435000Y-57150000D03*
D17*
X182880000Y-111125000D03*
X182880000Y-116205000D03*
X189865000Y-117475000D03*
X189865000Y-122555000D03*
X194945000Y-117475000D03*
X194945000Y-122555000D03*
X105410000Y-94615000D03*
X105410000Y-99695000D03*
X167703500Y-75565000D03*
X167703500Y-80645000D03*
X135890000Y-48895000D03*
X135890000Y-53975000D03*
X145415000Y-34925000D03*
X145415000Y-40005000D03*
D21*
X77470000Y-45720000D03*
D22*
X176530000Y-131191000D03*
X173990000Y-131191000D03*
X171450000Y-131191000D03*
X168910000Y-131191000D03*
X166370000Y-131191000D03*
X163830000Y-131191000D03*
X161290000Y-131191000D03*
X158750000Y-131191000D03*
X153670000Y-131191000D03*
X125730000Y-131191000D03*
X123190000Y-131191000D03*
X120650000Y-131191000D03*
X118110000Y-131191000D03*
X115570000Y-131191000D03*
X113030000Y-131191000D03*
X110490000Y-131191000D03*
X107950000Y-131191000D03*
X105410000Y-131191000D03*
X102870000Y-131191000D03*
D23*
X199771000Y-66040000D03*
X199771000Y-122555000D03*
D24*
X97155000Y-102870000D03*
X97155000Y-115570000D03*
X97155000Y-125095000D03*
X104140000Y-125095000D03*
X157480000Y-125095000D03*
X189230000Y-125095000D03*
X187325000Y-125095000D03*
X187325000Y-116205000D03*
X180340000Y-125095000D03*
X156210000Y-97155000D03*
X109220000Y-125095000D03*
X109220000Y-120015000D03*
X184785000Y-121920000D03*
X175260000Y-125095000D03*
X153035000Y-86360000D03*
X102870000Y-111760000D03*
X102870000Y-117475000D03*
X158750000Y-68580000D03*
X161925000Y-47625000D03*
X161925000Y-54991000D03*
X156845000Y-60960000D03*
X160020000Y-125095000D03*
X197485000Y-101600000D03*
X165100000Y-125095000D03*
X194945000Y-101600000D03*
X124460000Y-81915000D03*
X131445000Y-81915000D03*
X133985000Y-81915000D03*
X119380000Y-125095000D03*
X124460000Y-125095000D03*
X172720000Y-108077000D03*
X172720000Y-125095000D03*
X158750000Y-104140000D03*
X158750000Y-99695000D03*
X180340000Y-49530000D03*
X187960000Y-52070000D03*
X181610000Y-47625000D03*
X198120000Y-52070000D03*
X106680000Y-125095000D03*
X105410000Y-123825000D03*
X107950000Y-123825000D03*
X115570000Y-123825000D03*
X118110000Y-123825000D03*
X110490000Y-123825000D03*
X140970000Y-113665000D03*
X107950000Y-113665000D03*
X113030000Y-123825000D03*
X120650000Y-123825000D03*
X123190000Y-123825000D03*
X153670000Y-123825000D03*
X143510000Y-120650000D03*
X125730000Y-123825000D03*
X157480000Y-92710000D03*
X168910000Y-92710000D03*
X158750000Y-123825000D03*
X161290000Y-123825000D03*
X163830000Y-123825000D03*
X166370000Y-123825000D03*
X168910000Y-123825000D03*
X171450000Y-123825000D03*
X173990000Y-123825000D03*
X172720000Y-93980000D03*
X179070000Y-93980000D03*
X170180000Y-91440000D03*
X181610000Y-91440000D03*
X167640000Y-90170000D03*
X163830000Y-106680000D03*
X161290000Y-105410000D03*
X176530000Y-123825000D03*
X180340000Y-92710000D03*
X171450000Y-92710000D03*
X177800000Y-95250000D03*
X173990000Y-95250000D03*
X147320000Y-125095000D03*
X149860000Y-125095000D03*
X166370000Y-91440000D03*
X161290000Y-93980000D03*
X165100000Y-95250000D03*
X165100000Y-113665000D03*
X177800000Y-113665000D03*
X177800000Y-125095000D03*
X105410000Y-105410000D03*
X102870000Y-123825000D03*
X163830000Y-78105000D03*
X150495000Y-71755000D03*
X150495000Y-66040000D03*
X120015000Y-83820000D03*
X122555000Y-83820000D03*
X131445000Y-83820000D03*
X136525000Y-83820000D03*
D25*
G36*
X181767439Y-127406400D02*
X181725722Y-127460833D01*
X181471722Y-128095833D01*
X181462639Y-128143000D01*
X181462639Y-133297394D01*
X180267033Y-134493000D01*
X101632245Y-134493000D01*
X100436639Y-133297394D01*
X100436639Y-128270000D01*
X100432847Y-128239198D01*
X100305847Y-127731198D01*
X100288309Y-127691553D01*
X100034309Y-127310553D01*
X99999086Y-127275330D01*
X99776591Y-127127000D01*
X182139972Y-127127000D01*
X181767439Y-127406400D01*
X181767439Y-127406400D01*
G37*
X181767439Y-127406400D02*
X181725722Y-127460833D01*
X181471722Y-128095833D01*
X181462639Y-128143000D01*
X181462639Y-133297394D01*
X180267033Y-134493000D01*
X101632245Y-134493000D01*
X100436639Y-133297394D01*
X100436639Y-128270000D01*
X100432847Y-128239198D01*
X100305847Y-127731198D01*
X100288309Y-127691553D01*
X100034309Y-127310553D01*
X99999086Y-127275330D01*
X99776591Y-127127000D01*
X182139972Y-127127000D01*
X181767439Y-127406400D01*
M02*
